<svg width="40" height="40" viewBox="0 0 40 40" fill="none" xmlns="http://www.w3.org/2000/svg">
<g clip-path="url(#clip0_2_417)">
<path d="M35.4746 24.3312C33.1209 33.0005 24.1437 38.1608 15.4261 35.8554C6.70855 33.55 1.54827 24.6511 3.90192 15.9818C6.25557 7.31252 15.2328 2.15225 23.9504 4.45762C32.6679 6.76299 37.8282 15.662 35.4746 24.3312Z" fill="#E6AC39"/>
<path d="M12.0338 26.5456L16.2954 10.8479L22.7672 12.5594C24.6671 13.0619 26.0091 13.8079 26.7935 14.7976C27.5778 15.7873 27.7782 16.9884 27.3963 18.3951C27.1878 19.1632 26.8049 19.7906 26.2553 20.273C25.7028 20.7545 25.0365 21.0357 24.2608 21.1239C25.0077 21.5391 25.5285 22.109 25.8232 22.8461C26.1224 23.5782 26.154 24.3846 25.9136 25.2704C25.5045 26.7772 24.7143 27.7952 23.5424 28.3149C22.3668 28.8367 20.8926 28.8695 19.1093 28.4168L12.0338 26.5456ZM17.7479 17.9632L21.1895 18.8733C22.828 19.2751 23.8126 18.8731 24.1577 17.6017C24.3511 16.8895 24.2829 16.3227 23.9533 15.9012C23.6267 15.4804 23.0188 15.1493 22.1281 14.9138L18.8137 14.0373L17.7479 17.9632ZM17.1088 20.3175L15.8304 25.0263L19.6537 26.0374C20.4113 26.2377 22.2423 26.3277 22.6985 24.6473C23.1547 22.9668 22.5334 21.7742 21.0534 21.3607L17.1088 20.3175Z" fill="#F2F2F2"/>
<path d="M19.3013 9.12665L21.6648 9.75226L20.6007 13.6752L18.2372 13.0496L19.3013 9.12665ZM23.2425 10.1698L25.606 10.7955L24.5419 14.7184L22.1784 14.0928L23.2425 10.1698ZM14.8344 25.5947L17.1979 26.2203L16.1338 30.1432L13.7703 29.5176L14.8344 25.5947ZM18.7756 26.6379L21.1391 27.2635L20.075 31.1864L17.7115 30.5608L18.7756 26.6379Z" fill="#F2F2F2"/>
</g>
<defs>
<clipPath id="clip0_2_417">
<rect width="39.2893" height="38.9466" fill="white" transform="translate(0.043457 0.683197)"/>
</clipPath>
</defs>
</svg>
