<svg width="40" height="40" viewBox="0 0 40 40" fill="none" xmlns="http://www.w3.org/2000/svg">
<g clip-path="url(#clip0_2_387)">
<path d="M35.4746 24.2318C33.1209 32.901 24.1437 38.0613 15.4261 35.7559C6.70855 33.4506 1.54827 24.5516 3.90192 15.8823C6.25557 7.21305 15.2328 2.05278 23.9504 4.35815C32.6679 6.66352 37.8282 15.5625 35.4746 24.2318Z" fill="#E6AC39"/>
<path d="M12.0338 26.4461L16.2954 10.7484L22.7672 12.4599C24.6671 12.9623 26.0091 13.7084 26.7935 14.6981C27.5778 15.6877 27.7782 16.8889 27.3963 18.2956C27.1878 19.0637 26.8049 19.6911 26.2553 20.1735C25.7028 20.655 25.0365 20.9362 24.2608 21.0244C25.0077 21.4396 25.5285 22.0094 25.8232 22.7466C26.1224 23.4787 26.154 24.2851 25.9136 25.1709C25.5045 26.6777 24.7143 27.6957 23.5424 28.2154C22.3668 28.7372 20.8926 28.77 19.1093 28.3173L12.0338 26.4461ZM17.7479 17.8637L21.1895 18.7738C22.828 19.1756 23.8126 18.7736 24.1577 17.5022C24.3511 16.79 24.2829 16.2232 23.9533 15.8017C23.6267 15.3809 23.0188 15.0498 22.1281 14.8143L18.8137 13.9378L17.7479 17.8637ZM17.1088 20.218L15.8304 24.9267L19.6537 25.9379C20.4113 26.1382 22.2423 26.2282 22.6985 24.5477C23.1547 22.8673 22.5334 21.6747 21.0534 21.2612L17.1088 20.218Z" fill="#F2F2F2"/>
<path d="M19.3013 9.02718L21.6648 9.65279L20.6007 13.5757L18.2372 12.9501L19.3013 9.02718ZM23.2425 10.0704L25.606 10.696L24.5419 14.6189L22.1784 13.9933L23.2425 10.0704ZM14.8344 25.4952L17.1979 26.1208L16.1338 30.0437L13.7703 29.4181L14.8344 25.4952ZM18.7756 26.5384L21.1391 27.164L20.075 31.0869L17.7115 30.4613L18.7756 26.5384Z" fill="#F2F2F2"/>
</g>
<defs>
<clipPath id="clip0_2_387">
<rect width="39.2893" height="38.9466" fill="white" transform="translate(0.043457 0.58374)"/>
</clipPath>
</defs>
</svg>
