<svg width="40" height="40" viewBox="0 0 40 40" fill="none" xmlns="http://www.w3.org/2000/svg">
<g clip-path="url(#clip0_2_407)">
<path d="M9.65657 25.3398C9.83285 25.1712 10.0752 25.0728 10.3323 25.0728H33.6444C34.0704 25.0728 34.2834 25.5647 33.9823 25.8529L29.3772 30.2597C29.2009 30.4284 28.9585 30.5268 28.7014 30.5268H5.38929C4.96329 30.5268 4.7503 30.0348 5.05143 29.7466L9.65657 25.3398Z" fill="url(#paint0_linear_2_407)"/>
<path d="M9.65657 8.88639C9.84019 8.71771 10.0826 8.61931 10.3323 8.61931H33.6444C34.0704 8.61931 34.2834 9.1113 33.9823 9.39946L29.3772 13.8063C29.2009 13.9749 28.9585 14.0733 28.7014 14.0733H5.38929C4.96329 14.0733 4.7503 13.5813 5.05143 13.2932L9.65657 8.88639Z" fill="url(#paint1_linear_2_407)"/>
<path d="M29.3772 17.0604C29.2009 16.8917 28.9585 16.7933 28.7014 16.7933H5.38929C4.96329 16.7933 4.7503 17.2853 5.05143 17.5735L9.65657 21.9803C9.83285 22.1489 10.0752 22.2473 10.3323 22.2473H33.6444C34.0704 22.2473 34.2834 21.7553 33.9823 21.4672L29.3772 17.0604Z" fill="url(#paint2_linear_2_407)"/>
</g>
<defs>
<linearGradient id="paint0_linear_2_407" x1="31.4174" y1="5.9868" x2="16.3718" y2="36.1023" gradientUnits="userSpaceOnUse">
<stop stop-color="#00FFA3"/>
<stop offset="1" stop-color="#DC1FFF"/>
</linearGradient>
<linearGradient id="paint1_linear_2_407" x1="24.3628" y1="2.46235" x2="9.31721" y2="32.5779" gradientUnits="userSpaceOnUse">
<stop stop-color="#00FFA3"/>
<stop offset="1" stop-color="#DC1FFF"/>
</linearGradient>
<linearGradient id="paint2_linear_2_407" x1="27.8677" y1="4.21334" x2="12.8221" y2="34.3289" gradientUnits="userSpaceOnUse">
<stop stop-color="#00FFA3"/>
<stop offset="1" stop-color="#DC1FFF"/>
</linearGradient>
<clipPath id="clip0_2_407">
<rect width="29.21" height="21.9075" fill="white" transform="translate(4.91187 8.61929)"/>
</clipPath>
</defs>
</svg>
