<svg width="22" height="20" viewBox="0 0 22 20" fill="none" xmlns="http://www.w3.org/2000/svg">
<path d="M8.21466 8.12581H21.0718C21.1897 8.12581 21.2861 8.02938 21.2861 7.91152V6.41152C21.2861 6.29366 21.1897 6.19724 21.0718 6.19724H8.21466C8.0968 6.19724 8.00037 6.29366 8.00037 6.41152V7.91152C8.00037 8.02938 8.0968 8.12581 8.21466 8.12581ZM8.00037 13.5901C8.00037 13.708 8.0968 13.8044 8.21466 13.8044H21.0718C21.1897 13.8044 21.2861 13.708 21.2861 13.5901V12.0901C21.2861 11.9722 21.1897 11.8758 21.0718 11.8758H8.21466C8.0968 11.8758 8.00037 11.9722 8.00037 12.0901V13.5901ZM21.5004 0.572235H0.500373C0.382516 0.572235 0.286087 0.668664 0.286087 0.786521V2.28652C0.286087 2.40438 0.382516 2.50081 0.500373 2.50081H21.5004C21.6182 2.50081 21.7147 2.40438 21.7147 2.28652V0.786521C21.7147 0.668664 21.6182 0.572235 21.5004 0.572235ZM21.5004 17.5008H0.500373C0.382516 17.5008 0.286087 17.5972 0.286087 17.7151V19.2151C0.286087 19.333 0.382516 19.4294 0.500373 19.4294H21.5004C21.6182 19.4294 21.7147 19.333 21.7147 19.2151V17.7151C21.7147 17.5972 21.6182 17.5008 21.5004 17.5008ZM0.377159 10.1856L4.56377 13.483C4.71912 13.6062 4.94948 13.4963 4.94948 13.2981V6.70349C4.94948 6.50527 4.7218 6.39545 4.56377 6.51866L0.377159 9.81599C0.349007 9.83787 0.326228 9.8659 0.310558 9.89793C0.294888 9.92996 0.286743 9.96515 0.286743 10.0008C0.286743 10.0365 0.294888 10.0717 0.310558 10.1037C0.326228 10.1357 0.349007 10.1637 0.377159 10.1856Z" fill="#9BA6BC"/>
</svg>
